<svg id="HandTied" xmlns="http://www.w3.org/2000/svg" xmlns:xlink="http://www.w3.org/1999/xlink" width="56" height="56" viewBox="0 0 56 56">
  <defs>
    <clipPath id="clip-path">
      <rect id="Rectangle_94" data-name="Rectangle 94" width="56" height="56" fill="#233540"/>
    </clipPath>
  </defs>
  <g id="Group_42" data-name="Group 42" clip-path="url(#clip-path)">
    <path id="Path_3234" data-name="Path 3234" d="M17.793,63.23a3.664,3.664,0,0,0-5.57,4.759l2.93,3.515a1.317,1.317,0,0,1-2.011,1.7L8.483,67.772a1.32,1.32,0,0,1-.317-.857V51.65A3.654,3.654,0,0,0,4.516,48H3.65A3.654,3.654,0,0,0,0,51.65V69.339a3.673,3.673,0,0,0,.73,2.19L10.237,84.2a1.325,1.325,0,0,1,.263.79v3.839a1.167,1.167,0,0,0,2.333,0V84.995a3.674,3.674,0,0,0-.73-2.19L2.6,70.129a1.324,1.324,0,0,1-.263-.79V51.65A1.318,1.318,0,0,1,3.65,50.333h.867A1.319,1.319,0,0,1,5.833,51.65V66.915a3.652,3.652,0,0,0,.878,2.376l4.657,5.433a3.65,3.65,0,0,0,5.575-4.712L14.015,66.5a1.317,1.317,0,0,1,.1-1.793,1.317,1.317,0,0,1,1.922.064l5.8,6.633a1.315,1.315,0,0,1,.326.867V88.833a1.167,1.167,0,0,0,2.333,0V72.266a3.648,3.648,0,0,0-.9-2.4Z" transform="translate(0 -34)" fill="#233540"/>
    <path id="Path_3235" data-name="Path 3235" d="M128.85,48h-.867a3.654,3.654,0,0,0-3.65,3.65V66.915a1.32,1.32,0,0,1-.317.857L119.359,73.2a1.317,1.317,0,0,1-2.011-1.7l2.93-3.515a3.664,3.664,0,0,0-5.57-4.759l-5.8,6.633a3.649,3.649,0,0,0-.9,2.4V88.833a1.167,1.167,0,0,0,2.333,0V72.266a1.316,1.316,0,0,1,.326-.867l5.8-6.633a1.3,1.3,0,0,1,.947-.449,1.337,1.337,0,0,1,1.075,2.178l-2.929,3.515a3.65,3.65,0,0,0,5.575,4.712l4.657-5.433a3.653,3.653,0,0,0,.879-2.376V51.65a1.318,1.318,0,0,1,1.317-1.317h.867a1.318,1.318,0,0,1,1.317,1.317V69.339a1.325,1.325,0,0,1-.264.79L120.4,82.8a3.673,3.673,0,0,0-.73,2.19v3.839a1.167,1.167,0,1,0,2.333,0V84.994a1.324,1.324,0,0,1,.263-.79l9.506-12.675a3.673,3.673,0,0,0,.73-2.19V51.65A3.654,3.654,0,0,0,128.85,48" transform="translate(-76.5 -34)" fill="#233540"/>
    <path id="Path_3236" data-name="Path 3236" d="M77.667,17.111a8.511,8.511,0,0,0-1.147-4.278A8.554,8.554,0,0,0,64.833,1.147,8.554,8.554,0,0,0,53.147,12.833,8.554,8.554,0,0,0,64.833,24.519a8.554,8.554,0,0,0,12.833-7.408M65.954,22.472A1.148,1.148,0,0,0,66,22.167a1.167,1.167,0,1,0-2.288.305l-.048.027a6.221,6.221,0,0,1-8.5-8.5l.028-.048a1.165,1.165,0,1,0,.305-2.288,1.149,1.149,0,0,0-.305.045l-.028-.048a6.221,6.221,0,0,1,8.5-8.5l.048.027a1.167,1.167,0,1,0,2.242,0L66,3.167a6.221,6.221,0,0,1,8.5,8.5l-.028.048a1.147,1.147,0,0,0-.305-.045,1.167,1.167,0,1,0,.305,2.288L74.5,14A6.22,6.22,0,0,1,66,22.5Z" transform="translate(-36.833 0)" fill="#233540"/>
    <path id="Path_3237" data-name="Path 3237" d="M90.333,36a2.333,2.333,0,1,0,2.333,2.333A2.333,2.333,0,0,0,90.333,36" transform="translate(-62.333 -25.5)" fill="#233540"/>
  </g>
</svg>
