<svg xmlns="http://www.w3.org/2000/svg" xmlns:xlink="http://www.w3.org/1999/xlink" width="68" height="56" viewBox="0 0 68 56">
  <defs>
    <clipPath id="clip-path">
      <rect id="Rectangle_97" data-name="Rectangle 97" width="68" height="56" transform="translate(0 0)" fill="none"/>
    </clipPath>
  </defs>
  <g id="Trees" transform="translate(0 0.078)">
    <g id="Group_46" data-name="Group 46" transform="translate(0 -0.078)" clip-path="url(#clip-path)">
      <path id="Path_3243" data-name="Path 3243" d="M38.689,39.435l-7.657-6.806h3.476A2.781,2.781,0,0,0,36.4,27.812l-9.128-9.167h2.439a2.913,2.913,0,0,0,2.331-4.661L22.607,1.4a3.5,3.5,0,0,0-5.593,0L7.575,13.983a2.913,2.913,0,0,0,2.33,4.662h2.439L3.217,27.812a2.781,2.781,0,0,0,1.9,4.816H8.588L.931,39.435a2.774,2.774,0,0,0,1.843,4.847H18.645V54.769a1.165,1.165,0,1,0,2.331,0V44.282H36.847a2.774,2.774,0,0,0,1.843-4.847m-1.843,2.516H20.975v-7.8l4.465-6.7A1.165,1.165,0,1,0,23.5,26.156l-2.526,3.79v-7.8a1.165,1.165,0,1,0-2.331,0V37.972L15.973,35.3a1.165,1.165,0,0,0-1.691.045,1.21,1.21,0,0,0,.089,1.649l4.273,4.273v.683H2.774a.443.443,0,0,1-.295-.774l9.948-8.843a1.165,1.165,0,0,0-.774-2.036H5.112a.451.451,0,0,1-.3-.784l.042-.04L15.975,18.3a1.165,1.165,0,0,0-.826-1.987H9.905a.582.582,0,0,1-.466-.932L18.878,2.8a1.165,1.165,0,0,1,1.864,0l9.439,12.586a.583.583,0,0,1-.466.932H24.471a1.165,1.165,0,0,0-.826,1.987L34.77,29.474l.042.04a.451.451,0,0,1-.3.784H27.967a1.165,1.165,0,0,0-.774,2.036l9.948,8.843a.443.443,0,0,1-.294.774" transform="translate(0 0.065)" fill="#233540"/>
      <path id="Path_3244" data-name="Path 3244" d="M151.7,47.435l-7.657-6.806h3.476a2.781,2.781,0,0,0,1.9-4.816l-9.128-9.167h2.439a2.913,2.913,0,0,0,2.331-4.661L135.615,9.4a3.5,3.5,0,0,0-5.593,0l-9.439,12.585a2.913,2.913,0,0,0,2.33,4.662h2.439l-1.517,1.523a1.165,1.165,0,0,0,1.652,1.645l3.5-3.511a1.165,1.165,0,0,0-.826-1.987h-5.244a.583.583,0,0,1-.466-.932L131.886,10.8a1.166,1.166,0,0,1,1.864,0l9.439,12.586a.583.583,0,0,1-.466.932H137.48a1.165,1.165,0,0,0-.826,1.987l11.124,11.172.042.04a.451.451,0,0,1-.3.784h-6.541a1.165,1.165,0,0,0-.774,2.036l9.948,8.843a.443.443,0,0,1-.294.774H133.984v-.683l4.32-4.32a1.165,1.165,0,0,0-1.648-1.648l-2.672,2.672V30.141a1.165,1.165,0,1,0-2.331,0v7.8l-2.526-3.79a1.165,1.165,0,0,0-1.939,1.293l4.465,6.7V60.439a1.165,1.165,0,1,0,2.331,0V52.282h15.871a2.774,2.774,0,0,0,1.843-4.847" transform="translate(-85.041 -5.604)" fill="#233540"/>
    </g>
  </g>
</svg>
